# xmcd CD database file
#
# Track frame offsets:
#	225
#	11495
#	21280
#	32613
#	45410
#	56142
#	68043
#	78161
#	89545
#	101268
#	114360
#	125826
#	137459
#	148220
#	157833
#	172391
#	182862
#	191750
#	202364
#	212418
#
# Disc length: 2946 seconds
#
# Revision: 0
# Processed by: cddbd v1.5.2PL0 Copyright (c) Steve Scherf et al.
# Submitted via: CDex 1.51
#
DISCID=1e0b7f14
DTITLE=Patsy Cline - Today Tomorrow Forever
DYEAR=2005
DGENRE=Country
TTITLE0=Just Out of Reach
TTITLE1=I'm Blue Again
TTITLE2=Hungry For Love
TTITLE3=Yes I Understand
TTITLE4=Stop Look And Listen
TTITLE5=Today Tomorrow Forever
TTITLE6=Pick Me Up On Your Way Down
TTITLE7=Cry Not For Me
TTITLE8=Let The Teardrops Fall
TTITLE9=If I Could See The World
TTITLE10=The Heart You Break May Be Yours
TTITLE11=In Care Of The Blues
TTITLE12=Honky Tonk Merry Go Round
TTITLE13=I'm Moving Along
TTITLE14=Then You'll Know
TTITLE15=Too Many Secrets
TTITLE16=Try Again
TTITLE17=Walking Dream
TTITLE18=Turn The Cards Slowly
TTITLE19=Ain't No Wheels On This Ship
EXTD=YEAR: 2005
EXTT0=
EXTT1=
EXTT2=
EXTT3=
EXTT4=
EXTT5=
EXTT6=
EXTT7=
EXTT8=
EXTT9=
EXTT10=
EXTT11=
EXTT12=
EXTT13=
EXTT14=
EXTT15=
EXTT16=
EXTT17=
EXTT18=
EXTT19=
PLAYORDER=
